<svg width="15" height="15" viewBox="0 0 15 15" fill="none" xmlns="http://www.w3.org/2000/svg">
<path d="M14.8204 13.9143L10.6496 9.70447C11.4658 8.6813 11.9578 7.38477 11.9578 5.97498C11.9578 2.67505 9.28274 -3.05176e-05 5.97891 -3.05176e-05C2.67509 -3.05176e-05 0 2.67896 0 5.97888C0 9.2788 2.67509 11.9539 5.97891 11.9539C7.40823 11.9539 8.71648 11.454 9.74747 10.6183L13.8909 14.8008C14.0159 14.9336 14.1877 15 14.3556 15C14.5158 15 14.6759 14.9414 14.7969 14.8242C15.0547 14.5782 15.0625 14.1721 14.8204 13.9143ZM5.97891 10.6691C4.72533 10.6691 3.54595 10.1809 2.65946 9.29442C1.77298 8.40794 1.28482 7.22855 1.28482 5.97888C1.28482 4.7253 1.77298 3.54592 2.65946 2.66334C3.54595 1.77685 4.72533 1.2887 5.97891 1.2887C7.23249 1.2887 8.41187 1.77685 9.29836 2.66334C10.1849 3.54983 10.673 4.7292 10.673 5.97888C10.673 7.23246 10.1849 8.41184 9.29836 9.29442C8.41187 10.1809 7.23249 10.6691 5.97891 10.6691Z" fill="#341931"/>
</svg>
